<svg width="50" height="51" viewBox="0 0 50 51" fill="none" xmlns="http://www.w3.org/2000/svg">
<g clip-path="url(#clip0_175_343)">
<path d="M25 50.7275C38.8071 50.7275 50 39.5347 50 25.7275C50 11.9204 38.8071 0.727539 25 0.727539C11.1929 0.727539 0 11.9204 0 25.7275C0 39.5347 11.1929 50.7275 25 50.7275Z" fill="#F0F0F0"/>
<path d="M25 19.2054H49.1388C48.5119 16.8798 47.5592 14.6883 46.3307 12.6836H25V19.2054Z" fill="#338AF3"/>
<path d="M9.4374 45.2933H40.5617C42.8433 43.4761 44.7999 41.2688 46.3302 38.7715H3.66895C5.19932 41.2688 7.15596 43.4761 9.4374 45.2933V45.2933Z" fill="#338AF3"/>
<path d="M25 0.727539V6.1623H40.5622C36.2917 2.76113 30.8837 0.727539 25 0.727539V0.727539Z" fill="#338AF3"/>
<path d="M25 19.2054H49.1388C48.5119 16.8798 47.5592 14.6883 46.3307 12.6836H25V19.2054Z" fill="#338AF3"/>
<path d="M0 25.7275C0 27.9841 0.300781 30.1698 0.86123 32.2493H49.1389C49.6992 30.1698 50 27.9841 50 25.7275H0Z" fill="#338AF3"/>
<path d="M21.7393 15.359L18.6859 16.7952L20.3118 19.7522L16.9964 19.1181L16.5763 22.4672L14.2671 20.0039L11.9577 22.4672L11.5377 19.1181L8.22227 19.7521L9.84805 16.7951L6.79492 15.359L9.84814 13.9229L8.22227 10.9659L11.5376 11.6001L11.9578 8.25098L14.2671 10.7143L16.5764 8.25098L16.9964 11.6001L20.3119 10.9659L18.686 13.923L21.7393 15.359Z" fill="#FFDA44"/>
</g>
<defs>
<clipPath id="clip0_175_343">
<rect width="50" height="50" fill="white" transform="translate(0 0.727539)"/>
</clipPath>
</defs>
</svg>
